<svg width="95" height="124" viewBox="0 0 95 124" fill="none" xmlns="http://www.w3.org/2000/svg">
<path d="M55.2188 0C61.8782 15.7178 31.3405 25.346 28.5 38.4465C25.9018 50.4687 46.5927 64.5715 46.6117 64.5715C43.453 59.5982 41.154 55.404 38 47.6473C32.6562 34.5468 70.5613 22.7287 55.2188 0ZM75.4062 21.8215C75.4062 21.8215 48.7065 23.5077 47.3527 40.9688C46.7352 48.7445 54.4018 52.8247 54.625 58.4867C54.815 63.1037 50.0223 66.9418 50.0223 66.9418C50.0223 66.9418 58.615 65.3885 61.3035 58.3348C64.2723 50.5068 55.518 45.163 56.4062 38.8883C57.2613 32.8985 75.4062 21.8215 75.4062 21.8215ZM81.9375 62.0445C79.135 61.9163 75.981 62.9565 73.1785 65.0133C78.7075 63.7925 83.4242 67.26 83.4242 71.25C83.4242 80.1943 70.6562 88.616 70.6562 88.616C70.6562 88.616 90.3973 86.4072 90.3973 71.6965C90.3973 65.626 86.5973 62.2678 81.9375 62.0445ZM29.5402 62.1965C22.6527 62.434 8.90625 63.5693 8.90625 68.875C8.90625 76.2612 40.9307 76.836 63.8305 72.2902C63.8305 72.2902 70.0625 67.9487 71.6965 66.3527C56.6865 69.4687 22.4152 69.9533 22.4152 67.241C22.4152 64.7568 33.3973 62.1965 33.3973 62.1965C33.3973 62.1965 31.8392 62.1205 29.5402 62.1965ZM27.4598 75.8527C23.693 75.8527 18.107 78.7835 18.107 81.6383C18.107 87.3905 46.4645 91.808 67.393 83.4195L60.116 78.9688C45.923 83.6095 19.703 82.0657 27.4598 75.8527ZM31.0223 88.7633C25.8828 88.7633 22.5625 92.0122 22.5625 94.4062C22.5625 101.769 53.2713 102.495 65.4598 95L57.741 89.9508C48.6495 93.8695 25.7735 94.4443 31.0223 88.7633ZM13.8035 95.4465C5.41975 95.2802 0 99.0803 0 102.268C0 119.244 85.9465 118.432 85.9465 101.08C85.9465 98.2063 82.5503 96.8335 81.3438 96.1828C88.3595 112.77 11.134 111.473 11.134 101.674C11.134 99.4508 16.8483 97.223 22.116 98.2633L17.6652 95.7363C16.3862 95.5506 15.0959 95.457 13.8035 95.4465ZM95 106.875C81.9375 119.51 48.8775 124.037 15.5848 116.228C48.8728 130.145 94.8337 122.403 95 106.875Z" fill="#1B1C27"/>
</svg>
