<svg width="88" height="88" viewBox="0 0 88 88" fill="none" xmlns="http://www.w3.org/2000/svg">
<path d="M47.081 32.2632L34.7249 0H87.2194L74.8206 32.357C74.2871 32.4697 73.7626 32.6136 73.2505 32.7876L61.0023 10.6791L48.7185 32.6568C48.1834 32.4927 47.6363 32.3612 47.081 32.2632ZM6.71124 85.0769C23.2224 95.3387 41.5366 75.4822 66.4829 72.9807C80.8086 72.2296 90.5458 64.4698 84.9978 52.4573C74.6823 58.0791 65.0416 50.7122 65.109 43.3199H57.2706C57.0132 49.9197 51.4028 55.1121 42.7062 54.3402C35.899 63.3507 28.0094 68.4133 19.0574 70.9866C13.0068 68.5159 7.31283 62.4977 9.89437 54.4595C8.77103 54.3484 7.66976 54.1038 6.62034 53.7323C-1.70158 67.4821 -2.72993 78.3487 6.71124 85.0769ZM19.0034 43.3209C19.0034 38.0985 12.5701 34.8169 7.45152 37.428C2.33292 40.0391 2.33253 46.6027 7.45152 49.2137C12.5701 51.825 19.0034 48.5433 19.0034 43.3209ZM52.2988 43.2561C52.2988 38.0339 45.8654 34.7521 40.7468 37.3634C35.6282 39.9747 35.628 46.5379 40.7468 49.1489C45.8656 51.7602 52.2986 48.4786 52.2986 43.2561M85.469 43.2561C85.469 38.0339 79.0356 34.7521 73.917 37.3634C68.7984 39.9747 68.7982 46.5379 73.917 49.1489C79.0357 51.7602 85.4688 48.4786 85.4688 43.2561" fill="#1B1C27"/>
</svg>
