<svg width="45" height="95" viewBox="0 0 45 95" fill="none" xmlns="http://www.w3.org/2000/svg">
<path d="M30.4701 10.5926C27.6184 7.19393 24.904 3.68245 22.3333 0.0666249C22.3188 0.0460439 22.2996 0.0292466 22.2773 0.0176504C22.255 0.0060542 22.2302 0 22.2051 0C22.1799 0 22.1551 0.0060542 22.1328 0.0176504C22.1105 0.0292466 22.0913 0.0460439 22.0768 0.0666249C19.5062 3.68407 16.7918 7.19713 13.9401 10.5974C-20.3169 54.2356 19.3456 83.6761 19.3456 83.6761L19.6638 83.8994C19.9678 88.4546 20.7136 95.0001 20.7136 95.0001H23.6966C23.6966 95.0001 24.4423 88.4831 24.7416 83.9326L25.0693 83.6761C25.0693 83.6761 64.7271 54.2356 30.4748 10.5974M22.2051 83.0396C22.2051 83.0396 20.4286 81.5196 19.9488 80.7596L19.9441 80.6836L22.0958 33.1741C22.1011 33.1485 22.1151 33.1254 22.1355 33.1089C22.1558 33.0923 22.1812 33.0833 22.2074 33.0833C22.2336 33.0833 22.2591 33.0923 22.2794 33.1089C22.2997 33.1254 22.3137 33.1485 22.3191 33.1741L24.4661 80.6836V80.7644C23.9863 81.5244 22.2051 83.0396 22.2051 83.0396Z" fill="#1B1C27"/>
</svg>
