<svg width="102" height="111" viewBox="0 0 102 111" fill="none" xmlns="http://www.w3.org/2000/svg">
<path d="M50.875 110.798C49.2932 110.798 47.8225 110.386 46.4489 109.674L32.4397 101.635C30.3354 100.516 31.3899 100.109 32.0235 99.9057C34.8632 98.9899 35.3905 98.7864 38.3412 97.1538C38.6557 96.9503 39.0812 97.052 39.3957 97.2555L50.1396 103.467C50.5559 103.67 51.0878 103.67 51.4023 103.467L93.4296 79.9534C93.8459 79.7499 94.0586 79.3429 94.0586 78.8342V31.9089C94.0586 31.4002 93.8505 30.9932 93.4296 30.7897L51.4023 7.38253C50.9814 7.17903 50.4541 7.17903 50.1396 7.38253L8.11225 30.7897C7.69137 30.9932 7.47863 31.5019 7.47863 31.9089V78.8342C7.47863 79.2412 7.69137 79.7499 8.11225 79.9534L19.5915 86.3683C25.8075 89.4208 29.7017 85.8595 29.7017 82.2983V35.9835C29.7017 35.373 30.229 34.7625 30.969 34.7625H36.3386C36.9723 34.7625 37.6013 35.2713 37.6013 35.9835V82.2937C37.6013 90.3365 33.0734 95.017 25.1739 95.017C22.7504 95.017 20.8541 95.017 15.4845 92.4733L4.42613 86.3683C3.09454 85.6344 1.98256 84.559 1.20462 83.2526C0.426673 81.9463 0.0108706 80.4563 0 78.9359V32.0107C0 28.9582 1.6835 26.1092 4.42613 24.5829L46.4535 1.06478C47.8223 0.364932 49.3377 0 50.875 0C52.4123 0 53.9277 0.364932 55.2965 1.06478L97.3285 24.5783C100.067 26.1045 101.75 28.9535 101.75 32.006V78.9313C101.75 81.9838 100.067 84.8328 97.3285 86.3637L55.3011 109.873C53.9042 110.478 52.3976 110.79 50.875 110.788M63.8296 78.5197C45.399 78.5197 41.6065 70.3797 41.6065 63.456C41.6065 62.8455 42.1338 62.235 42.8691 62.235H48.3451C48.9788 62.235 49.5014 62.642 49.5014 63.2525C50.3478 68.6453 52.7713 71.2908 63.936 71.2908C72.7836 71.2908 76.5761 69.3575 76.5761 64.7788C76.5761 62.1333 75.5216 60.2 61.7252 58.8773C50.2414 57.7534 43.0819 55.316 43.0819 46.4592C43.0819 38.2128 50.2414 33.3242 62.2525 33.3242C75.7344 33.3242 82.3713 37.8058 83.213 47.5784C83.2027 47.9091 83.0913 48.2287 82.8939 48.4942C82.6858 48.6977 82.3712 48.9012 82.0521 48.9012H76.5761C76.3101 48.8947 76.0534 48.8019 75.8448 48.6367C75.6362 48.4715 75.4871 48.2429 75.4199 47.9854C74.1526 42.3892 70.8874 40.553 62.2525 40.553C52.5585 40.553 51.4023 43.809 51.4023 46.2557C51.4023 49.2064 52.7713 50.1222 65.8323 51.7502C78.7869 53.3782 84.8965 55.7184 84.8965 64.4689C84.7901 73.4322 77.2097 78.5197 63.8296 78.5197Z" fill="#1B1C27"/>
</svg>
