<svg width="56" height="50" viewBox="0 0 56 50" fill="none" xmlns="http://www.w3.org/2000/svg">
<path d="M27.9452 20.0868C30.6227 20.0868 32.8064 22.2705 32.8064 25C32.8064 27.5996 30.6227 29.8092 27.9452 29.8092C25.2677 29.8092 23.084 27.5996 23.084 25C23.084 22.2705 25.2677 20.0868 27.9452 20.0868ZM15.9093 45.7964C17.547 46.7843 21.1344 45.2765 25.2677 41.3772C23.9159 39.8435 22.5901 38.1797 21.3423 36.438C19.2477 36.2361 17.1651 35.9237 15.1034 35.5022C13.7776 41.0652 14.2716 44.8866 15.9093 45.7964ZM17.755 30.875L17.0011 29.5492C16.7151 30.3031 16.4292 31.057 16.2472 31.7848C16.9491 31.9408 17.729 32.0708 18.5348 32.2008L17.755 30.875ZM34.756 28.8993L36.8617 25L34.756 21.1007C33.9762 19.7229 33.1443 18.5011 32.3904 17.2793C30.9867 17.2013 29.5049 17.2013 27.9452 17.2013C26.3855 17.2013 24.9037 17.2013 23.5 17.2793C22.7461 18.5011 21.9142 19.7229 21.1344 21.1007L19.0287 25L21.1344 28.8993C21.9142 30.2771 22.7461 31.4989 23.5 32.7207C24.9037 32.7987 26.3855 32.7987 27.9452 32.7987C29.5049 32.7987 30.9867 32.7987 32.3904 32.7207C33.1443 31.4989 33.9762 30.2771 34.756 28.8993ZM27.9452 11.4303C27.4513 12.0022 26.9314 12.6001 26.4115 13.302H29.4789C28.959 12.6001 28.4391 12.0022 27.9452 11.4303ZM27.9452 38.5697C28.4391 37.9978 28.959 37.3999 29.4789 36.698H26.4115C26.9314 37.3999 27.4513 37.9978 27.9452 38.5697ZM39.9552 4.20356C38.3434 3.21573 34.756 4.72348 30.6227 8.62281C31.9745 10.1565 33.3003 11.8203 34.5481 13.562C36.6797 13.7699 38.7854 14.0819 40.787 14.4978C42.1128 8.93475 41.6189 5.11341 39.9552 4.20356ZM38.1355 19.125L38.8893 20.4508C39.1753 19.6969 39.4612 18.943 39.6432 18.2152C38.9413 18.0592 38.1615 17.9292 37.3556 17.7992L38.1355 19.125ZM41.9048 0.798149C45.7262 2.98177 46.1421 8.72679 44.5304 15.4336C51.1332 17.3833 55.8904 20.6068 55.8904 25C55.8904 29.3932 51.1332 32.6167 44.5304 34.5664C46.1421 41.2732 45.7262 47.0182 41.9048 49.2018C38.1095 51.3855 32.9364 48.8899 27.9452 44.1327C22.9541 48.8899 17.781 51.3855 13.9596 49.2018C10.1643 47.0182 9.74833 41.2732 11.3601 34.5664C4.75718 32.6167 0 29.3932 0 25C0 20.6068 4.75718 17.3833 11.3601 15.4336C9.74833 8.72679 10.1643 2.98177 13.9596 0.798149C17.781 -1.38548 22.9541 1.1101 27.9452 5.86728C32.9364 1.1101 38.1095 -1.38548 41.9048 0.798149ZM41.1509 25C42.0348 26.9497 42.8147 28.8993 43.4645 30.875C48.9236 29.2373 51.9911 26.8977 51.9911 25C51.9911 23.1023 48.9236 20.7627 43.4645 19.125C42.8147 21.1007 42.0348 23.0503 41.1509 25ZM14.7395 25C13.8556 23.0503 13.0758 21.1007 12.4259 19.125C6.96681 20.7627 3.89933 23.1023 3.89933 25C3.89933 26.8977 6.96681 29.2373 12.4259 30.875C13.0758 28.8993 13.8556 26.9497 14.7395 25ZM38.1355 30.875L37.3556 32.2008C38.1615 32.0708 38.9413 31.9408 39.6432 31.7848C39.4612 31.057 39.1753 30.3031 38.8893 29.5492L38.1355 30.875ZM30.6227 41.3772C34.756 45.2765 38.3434 46.7843 39.9552 45.7964C41.6189 44.8866 42.1128 41.0652 40.787 35.5022C38.7854 35.9181 36.6797 36.2301 34.5481 36.438C33.3003 38.1797 31.9745 39.8435 30.6227 41.3772ZM17.755 19.125L18.5348 17.7992C17.729 17.9292 16.9491 18.0592 16.2472 18.2152C16.4292 18.943 16.7151 19.6969 17.0011 20.4508L17.755 19.125ZM25.2677 8.62281C21.1344 4.72348 17.547 3.21573 15.9093 4.20356C14.2716 5.11341 13.7776 8.93475 15.1034 14.4978C17.1651 14.0763 19.2477 13.7639 21.3423 13.562C22.5901 11.8203 23.9159 10.1565 25.2677 8.62281Z" fill="#1B1C27"/>
</svg>
