<svg width="80" height="80" viewBox="0 0 80 80" fill="none" xmlns="http://www.w3.org/2000/svg">
<path d="M80 22.124V19.808C80 18.008 79.872 16.336 79.484 14.536C79.356 12.736 78.584 11.064 77.812 9.648C76.14 6.56 73.696 3.86 70.352 2.188C68.68 1.416 67.14 0.772 65.336 0.516C63.536 0.388 61.864 0 60.064 0H18.78C17.364 0 16.204 0.128 14.792 0.388C13.4638 0.549676 12.1647 0.89567 10.932 1.416C10.548 1.544 10.032 1.8 9.648 1.932C8.52572 2.67684 7.45158 3.49179 6.432 4.372C6.044 4.504 5.788 4.892 5.272 5.276C4.06435 6.50225 3.02705 7.8853 2.188 9.388C1.416 11.064 0.772 12.604 0.516 14.408C0.256 16.208 0.128 17.88 0 19.68V59.808C0 61.608 0.128 63.28 0.516 65.08C0.644 66.88 1.416 68.556 2.188 70.096C3.86 73.312 6.304 75.884 9.648 77.556C11.32 78.328 12.86 78.972 14.664 79.228C16.464 79.36 18.136 79.744 19.936 79.744H60.068C61.868 79.744 63.536 79.616 65.336 79.228C67.136 79.1 68.812 78.328 70.352 77.556C73.44 75.884 76.14 73.44 77.812 70.096C78.584 68.424 79.228 66.884 79.484 65.08C79.744 63.28 80 61.608 80 59.808V22.124ZM67.524 64.952C63.924 58.136 57.364 59.68 54.02 61.48C53.7548 61.7066 53.4495 61.8816 53.12 61.996H52.86C46.044 65.852 36.4 65.98 27.008 61.868C19.3511 58.4504 12.8667 52.859 8.36 45.788C10.5193 47.4783 12.9001 48.8645 15.436 49.908C25.596 54.664 35.5 54.276 42.7 49.908C32.54 42.188 24.308 32.028 17.62 23.924C16.3574 22.5082 15.1972 21.0044 14.148 19.424C21.868 26.496 34.212 35.5 38.588 37.816C29.196 28.04 21.092 15.696 21.348 16.336C36.012 31.128 49.516 39.616 49.516 39.616C50.032 39.744 50.42 40.128 50.804 40.388C50.932 39.616 51.32 38.972 51.576 38.2C53.892 29.712 51.448 19.808 45.404 11.832C59.164 19.936 67.14 35.5 63.796 48.748C63.664 48.876 63.664 49.26 63.664 49.648C70.224 57.492 68.424 66.496 67.524 64.952Z" fill="#1B1C27"/>
</svg>
