<svg xmlns="http://www.w3.org/2000/svg" viewBox="0 0 1024 1024"><title>logoArtboard 1</title><g id="E_outer" data-name="E outer"><path d="M672,441H566S547,215,340,215c-148,0-226,119-226,226,0,114,88,226,226,226,110,0,166.31-73,166.31-73l81.36,68.08S502.5,772.5,339.5,772.5s-332-122-332-332,169-331,333-331S672,236.5,672,441Z" style="fill:#fff"/><rect x="114" y="360" width="452" height="81" style="fill:#fff"/></g><g id="O_move_test" data-name="O move test"><path d="M906,441c0-118-78-226-226-226S454,334,454,441c0,114,88,226,226,226,110,0,166.31-73,166.31-73l81.36,68.08S842.5,772.5,679.5,772.5s-332-122-332-332,169-331,333-331S1012,236.5,1012,441H906" style="fill:#fff"/><path d="M906,441c0,114-95,225.58-211.72,225.58,0,13.42-6.48,105.92-6.48,105.92S1012,757,1012,441C1012,414.5,925.91,423.52,906,441Z" style="fill:#fff"/></g></svg>